<?xml version="1.0" encoding="UTF-8" standalone="no"?>
<!-- Created with Inkscape (http://www.inkscape.org/) -->

<svg
   xmlns:dc="http://purl.org/dc/elements/1.1/"
   xmlns:cc="http://creativecommons.org/ns#"
   xmlns:rdf="http://www.w3.org/1999/02/22-rdf-syntax-ns#"
   xmlns:svg="http://www.w3.org/2000/svg"
   xmlns="http://www.w3.org/2000/svg"
   xmlns:sodipodi="http://sodipodi.sourceforge.net/DTD/sodipodi-0.dtd"
   xmlns:inkscape="http://www.inkscape.org/namespaces/inkscape"
   width="700mm"
   height="700mm"
   viewBox="0 0 700 700"
   version="1.1"
   id="svg935"
   inkscape:export-filename="C:\Users\suitedoalex\sites\c6-bank-logo-0.png"
   inkscape:export-xdpi="148.63"
   inkscape:export-ydpi="148.63"
   inkscape:version="0.92.4 (5da689c313, 2019-01-14)"
   sodipodi:docname="c6-bank-logo.svg">
  <defs
     id="defs929">
    <clipPath
       clipPathUnits="userSpaceOnUse"
       id="clipPath92">
      <path
         d="M 0,0.2501713 H 594.999 V 841.74987 H 0 Z"
         id="path90"
         inkscape:connector-curvature="0" />
    </clipPath>
  </defs>
  <sodipodi:namedview
     id="base"
     pagecolor="#ffffff"
     bordercolor="#666666"
     borderopacity="1.0"
     inkscape:pageopacity="0.0"
     inkscape:pageshadow="2"
     inkscape:zoom="0.175"
     inkscape:cx="1142.1713"
     inkscape:cy="952.23825"
     inkscape:document-units="mm"
     inkscape:current-layer="layer1"
     showgrid="false"
     inkscape:window-width="1600"
     inkscape:window-height="837"
     inkscape:window-x="-8"
     inkscape:window-y="-8"
     inkscape:window-maximized="1" />
  <metadata
     id="metadata932">
    <rdf:RDF>
      <cc:Work
         rdf:about="">
        <dc:format>image/svg+xml</dc:format>
        <dc:type
           rdf:resource="http://purl.org/dc/dcmitype/StillImage" />
        <dc:title></dc:title>
      </cc:Work>
    </rdf:RDF>
  </metadata>
  <g
     inkscape:label="Layer 1"
     inkscape:groupmode="layer"
     id="layer1"
     transform="translate(0,403)">
    <g
       id="g86"
       transform="matrix(6.3111131,0,0,-6.3111131,-1527.5565,5012.0154)"
       style="fill:#000000"
       inkscape:export-xdpi="19.009085"
       inkscape:export-ydpi="19.009085">
      <g
         id="g88"
         clip-path="url(#clipPath92)"
         style="fill:#000000">
        <path
           d="m 296.4527,803.2762 c 1.2394,0.5957 1.9891,1.8201 1.9891,3.3044 0,1.1075 -0.3589,2.0141 -1.0615,2.6938 -0.6837,0.7077 -1.5853,1.0665 -2.6768,1.0665 h -4.4929 c -0.039,0 -0.07,-0.032 -0.07,-0.071 v -15.4288 c 0,-0.04 0.031,-0.071 0.07,-0.071 h 5.0996 c 1.1795,0 2.182,0.4168 2.9816,1.2384 0.8047,0.8287 1.2125,1.8372 1.2125,2.9987 0,2.101 -1.1815,3.7252 -3.0516,4.269 m -5.7374,6.489 h 3.9882 c 1.8621,0 3.1635,-1.3084 3.1635,-3.1846 0,-0.9035 -0.2998,-1.6602 -0.8906,-2.2509 -0.5757,-0.5757 -1.3403,-0.8686 -2.2729,-0.8686 h -3.9882 z m 7.1487,-13.3598 c -0.6837,-0.7037 -1.5433,-1.0605 -2.5538,-1.0605 h -4.5949 v 7.5415 h 4.4 c 1.1205,0 2.0211,-0.3549 2.7507,-1.0855 0.7067,-0.7057 1.0635,-1.6463 1.0635,-2.7937 0,-1.0336 -0.3488,-1.8832 -1.0655,-2.6018"
           style="fill:#000000;fill-opacity:1;fill-rule:nonzero;stroke:none"
           id="path94"
           inkscape:connector-curvature="0" />
        <path
           d="m 265.7657,799.7519 c -0.5487,-0.4718 -1.1854,-0.7077 -1.9091,-0.7077 -0.9296,0 -1.6822,0.3239 -2.2599,0.9706 -0.5788,0.6477 -0.8676,1.4943 -0.8676,2.5408 0,1.0525 0.2878,1.9031 0.8616,2.5508 0.5737,0.6467 1.3293,0.9716 2.2659,0.9716 0.6807,0 1.2954,-0.2149 1.8432,-0.6427 0.5487,-0.4278 0.9365,-0.9926 1.1634,-1.6952 h 5.3435 c -0.2778,2.129 -1.1854,3.8492 -2.7207,5.1626 -1.5363,1.3134 -3.4204,1.9691 -5.6514,1.9691 -1.6532,0 -3.1415,-0.3559 -4.4659,-1.0696 -1.3234,-0.7126 -2.3569,-1.7042 -3.0996,-2.9726 -0.7426,-1.2694 -1.1135,-2.6947 -1.1135,-4.274 0,-1.5803 0.3709,-3.0046 1.1135,-4.274 0.7427,-1.2694 1.7762,-2.26 3.0996,-2.9736 1.3244,-0.7137 2.8127,-1.0695 4.4659,-1.0695 2.268,0 4.1771,0.6807 5.7274,2.04 1.5512,1.3614 2.4508,3.1386 2.6997,5.3335 h -5.4205 c -0.1679,-0.7686 -0.5267,-1.3883 -1.0755,-1.8601"
           style="fill:#000000;fill-opacity:1;fill-rule:nonzero;stroke:none"
           id="path96"
           inkscape:connector-curvature="0" />
        <path
           d="m 285.0034,804.0766 c -1.0535,0.9915 -2.4119,1.4863 -4.0771,1.4863 -0.1709,0 -0.4028,-0.008 -0.6967,-0.023 l 2.9476,4.8008 -5.2645,-10e-4 -2.4919,-4.0681 c -0.7046,-1.1535 -1.2254,-2.216 -1.5622,-3.1885 -0.3369,-0.9716 -0.5058,-1.9381 -0.5058,-2.8977 0,-1.7582 0.6137,-3.1885 1.8411,-4.292 1.2275,-1.1035 2.8207,-1.6552 4.7798,-1.6552 1.9821,0 3.5794,0.5497 4.7918,1.6492 1.2114,1.0995 1.8182,2.5478 1.8182,4.344 0,1.5723 -0.5268,2.8537 -1.5803,3.8452 m -3.5544,-5.3195 c -0.3798,-0.3799 -0.8706,-0.5698 -1.4753,-0.5698 -0.6037,0 -1.0955,0.1899 -1.4743,0.5698 -0.3798,0.3788 -0.5697,0.8706 -0.5697,1.4743 0,0.6047 0.1899,1.0995 0.5697,1.4873 0.3788,0.3868 0.8706,0.5807 1.4743,0.5807 0.6047,0 1.0955,-0.1939 1.4753,-0.5807 0.3789,-0.3878 0.5688,-0.8826 0.5688,-1.4873 0,-0.6037 -0.1899,-1.0955 -0.5688,-1.4743"
           style="fill:#000000;fill-opacity:1;fill-rule:nonzero;stroke:none"
           id="path98"
           inkscape:connector-curvature="0" />
        <path
           d="m 339.8315,794.8812 v 0 l -5.9863,8.3901 5.9643,6.9528 c 0.01,0.0119 0.016,0.0279 0.016,0.0459 0,0.039 -0.031,0.071 -0.07,0.071 h -0.5627 c -0.021,0 -0.041,-0.01 -0.053,-0.026 l -8.2002,-9.5576 v 9.5126 c 0,0.039 -0.031,0.071 -0.07,0.071 h -0.4258 c -0.039,0 -0.0699,-0.032 -0.0699,-0.071 v -15.4298 c 0,-0.039 0.0309,-0.07 0.0699,-0.07 h 0.4258 c 0.039,0 0.07,0.031 0.07,0.07 v 5.0606 l 2.5248,2.9147 5.7164,-8.0153 c 0.012,-0.018 0.0339,-0.03 0.0579,-0.03 h 0.5348 c 0.039,0 0.071,0.031 0.071,0.07 0,0.016 -0.005,0.03 -0.013,0.041"
           style="fill:#000000;fill-opacity:1;fill-rule:nonzero;stroke:none"
           id="path100"
           inkscape:connector-curvature="0" />
        <path
           d="m 326.7848,810.3408 h -0.4338 c -0.039,0 -0.07,-0.032 -0.07,-0.071 v -14.1254 l -10.2102,14.1674 c -0.012,0.017 -0.033,0.029 -0.056,0.029 h -0.2759 c -0.0389,0 -0.0699,-0.032 -0.0699,-0.071 V 794.841 c 0,-0.039 0.031,-0.071 0.0699,-0.071 h 0.4338 c 0.039,0 0.071,0.032 0.071,0.071 v 14.2354 l 10.2892,-14.2774 c 0.013,-0.018 0.033,-0.029 0.057,-0.029 h 0.1949 c 0.04,0 0.071,0.032 0.071,0.071 v 15.4288 c 0,0.039 -0.031,0.071 -0.071,0.071"
           style="fill:#000000;fill-opacity:1;fill-rule:nonzero;stroke:none"
           id="path102"
           inkscape:connector-curvature="0" />
        <path
           d="m 313.1095,794.8651 -5.8513,15.4298 c -0.009,0.026 -0.036,0.046 -0.066,0.046 h -0.2739 c -0.031,0 -0.0559,-0.019 -0.0669,-0.045 l -5.8513,-15.4298 c -0.003,-0.008 -0.004,-0.017 -0.004,-0.025 0,-0.039 0.031,-0.071 0.0699,-0.071 h 0.4508 c 0.031,0 0.056,0.019 0.067,0.045 l 1.8012,4.7728 h 7.3406 l 1.8011,-4.7708 c 0.01,-0.028 0.036,-0.047 0.066,-0.047 h 0.4508 c 0.039,0 0.071,0.032 0.071,0.071 0,0.008 -0.002,0.017 -0.005,0.024 m -9.5156,5.2975 3.4604,9.0678 3.4614,-9.0678 z"
           style="fill:#000000;fill-opacity:1;fill-rule:nonzero;stroke:none"
           id="path104"
           inkscape:connector-curvature="0" />
      </g>
    </g>
  </g>
</svg>
