<?xml version="1.0" encoding="UTF-8" standalone="no"?>
<!-- Created with Inkscape (http://www.inkscape.org/) -->

<svg
   xmlns:dc="http://purl.org/dc/elements/1.1/"
   xmlns:cc="http://creativecommons.org/ns#"
   xmlns:rdf="http://www.w3.org/1999/02/22-rdf-syntax-ns#"
   xmlns:svg="http://www.w3.org/2000/svg"
   xmlns="http://www.w3.org/2000/svg"
   xmlns:sodipodi="http://sodipodi.sourceforge.net/DTD/sodipodi-0.dtd"
   xmlns:inkscape="http://www.inkscape.org/namespaces/inkscape"
   width="700"
   height="700"
   viewBox="0 0 185.20834 185.20834"
   version="1.1"
   id="svg5259"
   inkscape:version="0.92.0 r15299"
   sodipodi:docname="caixa-logo-2023.svg"
   inkscape:export-filename="C:\Users\suitedoalex\sites\caixa-logo-0.png"
   inkscape:export-xdpi="561.73712"
   inkscape:export-ydpi="561.73712">
  <defs
     id="defs5253" />
  <sodipodi:namedview
     id="base"
     pagecolor="#ffffff"
     bordercolor="#666666"
     borderopacity="1.0"
     inkscape:pageopacity="0.0"
     inkscape:pageshadow="2"
     inkscape:zoom="0.59323699"
     inkscape:cx="-106.84538"
     inkscape:cy="174.05708"
     inkscape:document-units="mm"
     inkscape:current-layer="layer1"
     showgrid="false"
     units="px"
     inkscape:window-width="1920"
     inkscape:window-height="1017"
     inkscape:window-x="-8"
     inkscape:window-y="-8"
     inkscape:window-maximized="1" />
  <metadata
     id="metadata5256">
    <rdf:RDF>
      <cc:Work
         rdf:about="">
        <dc:format>image/svg+xml</dc:format>
        <dc:type
           rdf:resource="http://purl.org/dc/dcmitype/StillImage" />
        <dc:title></dc:title>
      </cc:Work>
    </rdf:RDF>
  </metadata>
  <g
     inkscape:label="Camada 1"
     inkscape:groupmode="layer"
     id="layer1"
     transform="translate(0,-111.79161)">
    <g
       transform="matrix(2.311957,0,0,-2.311957,-430.65723,556.80206)"
       id="g698-2-1"
       inkscape:export-xdpi="64.416962"
       inkscape:export-ydpi="64.416962">
      <path
         d="m 226.4876,144.9451 h 6.4854 l 7.1099,7.1095 h -6.486 z"
         style="fill:#f39200;fill-opacity:1;fill-rule:evenodd;stroke:none"
         id="path700-4-2"
         inkscape:connector-curvature="0" />
      <path
         d="m 241.4288,159.8862 -2.8129,-2.8131 2.189,-4.2962 7.1095,7.1093 z"
         style="fill:#f39200;fill-opacity:1;fill-rule:evenodd;stroke:none"
         id="path702-5-0"
         inkscape:connector-curvature="0" />
      <path
         d="m 223.2176,159.8862 h 5.4266 l -2.37,-14.9408 h -5.4264 z"
         style="fill:#0066b3;fill-opacity:1;fill-rule:evenodd;stroke:none"
         id="path704-5-2"
         inkscape:connector-curvature="0" />
      <path
         d="m 213.5656,150.3465 -0.2662,2.7388 c -0.0626,0.6469 -0.2568,1.6175 -0.2443,2.3097 v 0 l -1.8598,-5.0485 h 2.3281 z m -4.4938,-5.4014 h -5.7378 l 7.5549,14.9411 h 6.0029 l 2.9721,-14.9411 h -5.7512 l -0.2047,1.8635 h -4.1023 z"
         style="fill:#0066b3;fill-opacity:1;fill-rule:evenodd;stroke:none"
         id="path706-2-2"
         inkscape:connector-curvature="0"
         sodipodi:nodetypes="cccccccccccccccc" />
      <path
         d="m 230.6959,159.8876 6.4854,6e-4 3.6238,-7.1116 h -6.4859 z"
         style="fill:#0066b3;fill-opacity:1;fill-rule:evenodd;stroke:none"
         id="path708-3-3"
         inkscape:connector-curvature="0" />
      <path
         d="m 254.1399,150.3465 -0.2662,2.7388 c -0.0624,0.6469 -0.2566,1.6175 -0.2441,2.3097 v 0 l -1.8601,-5.0485 h 2.3281 z m -4.4938,-5.4014 h -5.7379 l 7.5549,14.9411 h 6.0029 l 2.9725,-14.9411 h -5.7515 l -0.2047,1.8635 h -4.102 z"
         style="fill:#0066b3;fill-opacity:1;fill-rule:evenodd;stroke:none"
         id="path710-6-0"
         inkscape:connector-curvature="0"
         sodipodi:nodetypes="cccscccccccccccc" />
      <path
         d="m 204.169,153.8354 c -0.7347,0.8059 -1.7209,1.5035 -2.9466,1.5035 -1.6259,0 -3.1538,-1.287 -3.4174,-2.9109 -0.2534,-1.6487 0.9504,-2.9109 2.5753,-2.9109 1.25,0 2.3207,0.5286 3.3318,1.3824 l -1.0468,-5.5933 c -0.9389,-0.409 -2.9832,-0.5899 -3.9586,-0.5899 -4.2571,0 -7.0617,3.3089 -6.389,7.5665 0.6871,4.3668 4.6695,7.8563 9.0479,7.8563 1.2271,0 2.4655,-0.2285 3.5475,-0.6132 z"
         style="fill:#0066b3;fill-opacity:1;fill-rule:evenodd;stroke:none"
         id="path712-5-3"
         inkscape:connector-curvature="0" />
      <path
         d="m 235.7864,147.7582 4.2965,4.2964 3.6224,-7.1095 h -6.4854 z"
         style="fill:#0066b3;fill-opacity:1;fill-rule:evenodd;stroke:none"
         id="path714-4-9"
         inkscape:connector-curvature="0" />
    </g>
  </g>
</svg>
