<?xml version="1.0" encoding="UTF-8" standalone="no"?>
<svg
   xmlns:dc="http://purl.org/dc/elements/1.1/"
   xmlns:cc="http://creativecommons.org/ns#"
   xmlns:rdf="http://www.w3.org/1999/02/22-rdf-syntax-ns#"
   xmlns:svg="http://www.w3.org/2000/svg"
   xmlns="http://www.w3.org/2000/svg"
   xmlns:sodipodi="http://sodipodi.sourceforge.net/DTD/sodipodi-0.dtd"
   xmlns:inkscape="http://www.inkscape.org/namespaces/inkscape"
   width="700"
   height="700"
   version="1.1"
   id="svg6"
   sodipodi:docname="itau-logo.svg"
   inkscape:version="0.92.0 r15299"
   inkscape:export-filename="C:\Users\suitedoalex\sites\itau-logo-0.png"
   inkscape:export-xdpi="561.73712"
   inkscape:export-ydpi="561.73712">
  <metadata
     id="metadata12">
    <rdf:RDF>
      <cc:Work
         rdf:about="">
        <dc:format>image/svg+xml</dc:format>
        <dc:type
           rdf:resource="http://purl.org/dc/dcmitype/StillImage" />
        <dc:title></dc:title>
      </cc:Work>
    </rdf:RDF>
  </metadata>
  <defs
     id="defs10" />
  <sodipodi:namedview
     pagecolor="#ffffff"
     bordercolor="#666666"
     borderopacity="1"
     objecttolerance="10"
     gridtolerance="10"
     guidetolerance="10"
     inkscape:pageopacity="0"
     inkscape:pageshadow="2"
     inkscape:window-width="1920"
     inkscape:window-height="1017"
     id="namedview8"
     showgrid="false"
     inkscape:zoom="0.42778787"
     inkscape:cx="-232.9355"
     inkscape:cy="382.93556"
     inkscape:window-x="-8"
     inkscape:window-y="-8"
     inkscape:window-maximized="1"
     inkscape:current-layer="svg6" />
  <path
     d="m 316.90777,96.690336 c -14.60463,0.3472 -25.31807,0.86059 -44.95922,2.07155 -9.08436,0.54197 -19.00073,1.340114 -25.9839,2.038744 -1.75293,0.19054 -5.41971,0.54197 -8.12956,0.79814 -11.38244,1.11676 -28.28198,3.24971 -35.39005,4.46173 -1.50101,0.25617 -3.70065,0.6076 -4.94125,0.79814 -1.21203,0.1609 -3.38203,0.54091 -4.78459,0.79813 -1.4015,0.25617 -3.76204,0.70287 -5.25881,0.9548 -5.2641,0.89341 -14.22038,2.71197 -19.28971,3.924 -1.40574,0.35143 -3.92399,0.9548 -5.58166,1.34011 -1.65873,0.38001 -3.15444,0.73145 -3.34498,0.76426 -9.34582,2.22928 -18.62389,6.72806 -25.76478,12.56165 -6.95141,5.64412 -13.16608,14.76235 -16.29194,23.81708 -0.50809,1.40256 -1.02148,2.83687 -1.17815,3.18831 -0.54197,1.21202 -2.9025,11.41208 -4.59405,19.76923 -0.25193,1.4015 -0.69863,3.47306 -0.9548,4.62263 -0.25722,1.14533 -0.60336,3.15444 -0.82777,4.46173 -0.19371,1.30623 -0.4467,2.90251 -0.6076,3.50587 -0.47952,1.82069 -2.42299,14.2532 -3.66783,23.27616 -1.21097,8.73716 -2.0091,15.08415 -2.70774,21.52217 -0.35143,3.15444 -0.70286,6.24748 -0.76532,6.85508 -0.0953,0.60337 -0.38425,3.69747 -0.67005,6.85614 -0.25617,3.15444 -0.63618,7.01281 -0.83095,8.60908 -0.670057,5.86324 -2.328777,31.40467 -3.154437,49.4199 -0.63724,13.35556 -1.05113,41.95721 -0.82778,57.54946 0.22335,19.44743 0.69864,36.82649 1.14534,42.88343 0.16195,2.45263 0.47952,7.62147 0.67005,11.47877 0.19054,3.85731 0.4467,8.79856 0.6076,10.9982 0.73251,11.03207 1.307287,18.26822 1.592037,20.56313 0.16196,1.40574 0.54197,5.13602 0.79814,8.25764 0.25616,3.12586 0.63724,6.85614 0.79813,8.29046 0.19054,1.43538 0.54198,4.52736 0.79391,6.88896 0.79813,7.55477 1.40573,12.49602 1.91489,15.78278 0.25617,1.75294 0.70287,4.75071 0.9548,6.69418 0.92622,7.01281 2.0091,13.83508 3.18831,20.08785 0.25617,1.40151 0.67006,3.7631 0.95904,5.25987 0.54197,3.18725 1.78575,9.53424 2.67915,13.54927 3.05917,14.06372 4.39928,18.26822 8.00148,25.18999 0.98761,1.91066 2.26209,4.14312 2.83688,4.94125 0.54091,0.79814 1.33905,1.94348 1.75293,2.55108 1.81857,2.70879 7.01704,8.00147 9.88674,10.04445 0.47528,0.3472 1.4015,1.0162 2.00486,1.49677 0.64148,0.5081 1.24484,0.89235 1.40574,0.89235 0.12808,0 0.4467,0.22335 0.69864,0.48057 1.24483,1.21097 10.01481,5.38795 13.77367,6.50365 0.70287,0.22335 1.56346,0.5081 1.9149,0.67006 0.83095,0.38107 5.51497,1.55922 11.16015,2.83687 2.4558,0.57479 4.97406,1.17815 5.57849,1.33905 1.46713,0.38108 10.71239,2.22928 17.69661,3.50693 4.01503,0.73145 11.8302,1.97629 16.73758,2.67916 1.84926,0.25193 4.2098,0.60337 5.26093,0.7939 3.8573,0.67006 19.80098,2.52249 29.81156,3.47729 3.6022,0.35144 8.0343,0.76533 9.8825,0.9548 2.99778,0.31862 6.05801,0.57479 20.72403,1.62592 2.19964,0.16089 7.20758,0.4467 11.16015,0.64041 3.95364,0.19054 9.46967,0.47634 12.27691,0.63724 22.70032,1.30623 87.61507,1.30623 109.99677,0 2.80724,-0.19054 8.32327,-0.4467 12.27691,-0.63724 6.78945,-0.31756 9.27807,-0.47952 19.92589,-1.27765 13.64454,-1.05007 33.7038,-2.99778 40.49326,-3.95258 1.94347,-0.2858 5.29268,-0.7325 7.49232,-1.02149 8.12956,-1.05006 19.28971,-2.74161 25.66528,-3.91976 6.98422,-1.27765 16.22948,-3.12585 17.69767,-3.50693 0.60337,-0.1609 3.12163,-0.76426 5.57849,-1.33905 5.51497,-1.24484 10.29956,-2.4558 11.15909,-2.83687 a 185.0322,185.0322 0 0 1 3.18831,-1.11676 c 2.61353,-0.85953 11.28824,-4.97406 12.01969,-5.67693 0.22335,-0.22335 0.86059,-0.69864 1.40256,-1.02149 2.48862,-1.55922 3.63395,-2.45157 5.90028,-4.49455 2.55107,-2.32878 6.09082,-6.15221 6.95035,-7.4595 0.28581,-0.44671 1.05113,-1.52959 1.68731,-2.39018 0.67005,-0.89235 1.21202,-1.69048 1.21202,-1.81857 0,-0.12914 0.51233,-1.02148 1.1157,-1.97734 0.60866,-0.9548 1.34011,-2.36054 1.63015,-3.12586 0.31756,-0.73145 0.63512,-1.52959 0.76426,-1.68625 0.60337,-0.79814 2.83688,-7.14512 3.79168,-10.74732 1.501,-5.57849 4.30401,-18.74668 5.3255,-24.96665 0.25616,-1.59203 0.54197,-3.0888 0.63724,-3.34497 0.28898,-0.70287 2.04297,-11.63967 3.63395,-22.79559 0.35144,-2.4558 0.70287,-4.91161 0.79814,-5.42076 0.25722,-1.46819 1.40256,-11.25542 1.91489,-16.42002 0.25193,-2.55107 0.60337,-5.4864 0.7939,-6.53752 0.19477,-1.05431 0.54197,-4.49455 0.79814,-7.65322 0.25617,-3.15444 0.6076,-7.04562 0.76532,-8.60908 0.19054,-1.59204 0.47952,-5.226 0.669,-8.12956 0.19053,-2.90251 0.47951,-6.47084 0.63724,-7.97078 0.19371,-1.49783 0.54197,-7.01387 0.79813,-12.27373 0.28898,-5.26305 0.6076,-11.73494 0.79814,-14.34741 1.43432,-23.18089 1.43432,-84.01393 0,-107.92521 -0.16196,-2.71303 -0.4467,-8.0343 -0.63724,-11.79739 -0.19371,-3.7631 -0.47952,-8.73716 -0.64041,-11.00243 -0.19054,-2.29491 -0.60337,-7.93903 -0.95586,-12.5913 -0.35144,-4.65544 -0.70287,-9.02614 -0.79814,-9.72477 -0.0953,-0.70393 -0.38001,-3.79591 -0.63618,-6.85614 -0.25617,-3.05917 -0.54197,-5.92992 -0.63724,-6.37557 -0.0953,-0.4467 -0.4467,-3.38308 -0.79814,-6.53752 -0.82565,-7.62146 -1.8482,-16.03577 -2.07155,-17.02339 -0.0953,-0.4467 -0.4467,-2.99777 -0.79814,-5.61553 -1.5624,-11.92124 -4.46067,-28.53497 -6.95035,-39.85179 -0.35143,-1.59627 -0.92199,-4.17698 -1.27342,-5.73938 -0.8934,-4.08172 -1.94771,-8.19519 -2.29491,-8.9277 -0.16089,-0.35144 -0.4467,-1.21097 -0.67005,-1.91384 -0.70287,-2.35736 -4.24262,-10.23393 -5.13496,-11.47877 -0.12914,-0.19053 -1.14534,-1.6873 -2.23351,-3.34497 -2.2621,-3.41166 -8.06288,-9.46967 -11.54017,-12.02074 -6.88472,-5.06933 -14.539,-8.51381 -24.42044,-10.9368 a 466.74265,466.74265 0 0 1 -5.10214,-1.27766 c -1.17921,-0.3472 -3.54081,-0.85953 -8.61014,-1.91066 a 419.51604,419.51604 0 0 1 -4.30401,-0.92621 c -6.15327,-1.49678 -26.17761,-4.75072 -39.21561,-6.40839 -2.61776,-0.31861 -5.19741,-0.67005 -5.73938,-0.7939 -0.95904,-0.19477 -5.58166,-0.67005 -14.98465,-1.59627 -2.61776,-0.25617 -6.2189,-0.63724 -7.97183,-0.79814 -1.75294,-0.19053 -4.91161,-0.47634 -7.01281,-0.67005 -2.10543,-0.156664 -5.54885,-0.446704 -7.65322,-0.603374 -7.14195,-0.6076 -26.97257,-1.75293 -37.94218,-2.23351 -21.20461,-0.92516 -60.35776,-1.21096 -84.65117,-0.60336 z M 176.42832,312.12794 c 0.19054,0.15666 1.11676,0.4467 2.03875,0.66899 1.72435,0.41389 4.14734,1.53064 5.96167,2.74161 1.43538,0.95586 4.8174,4.58981 5.48322,5.86747 0.32286,0.63724 0.67006,1.21202 0.76533,1.30729 0.0995,0.0953 0.38424,0.73145 0.64041,1.43432 0.22335,0.69863 0.5081,1.43537 0.67005,1.59204 0.41283,0.6076 0.89341,4.39928 0.89341,7.20757 0,2.74161 -0.41812,5.96168 -0.95904,7.14089 -1.72012,3.95258 -2.55107,5.25881 -4.71789,7.55795 -2.01016,2.07156 -2.83688,2.7088 -5.57849,4.0489 -2.23351,1.1157 -3.82873,1.69049 -5.10215,1.81434 -1.02148,0.12808 -1.91489,0.35143 -2.01016,0.48057 -0.22229,0.38425 -7.14089,0.38425 -7.14089,0 0,-0.12914 -0.79813,-0.35249 -1.81962,-0.48057 -0.98761,-0.12385 -2.22822,-0.41283 -2.77019,-0.63618 a 32.812517,32.812517 0 0 0 -2.10437,-0.86059 c -0.6076,-0.2223 -1.18239,-0.47952 -1.27765,-0.57479 -0.0953,-0.12702 -0.57479,-0.41283 -1.11676,-0.669 -1.84821,-0.92304 -5.67376,-5.16565 -6.78945,-7.49338 -0.6076,-1.24378 -1.17816,-2.4558 -1.33905,-2.70773 -1.08394,-2.17 -1.27448,-12.05356 -0.25723,-14.34847 0.29004,-0.6076 0.70287,-1.62485 0.92622,-2.23351 0.22335,-0.60336 0.47952,-1.17815 0.57479,-1.27236 0.0953,-0.0953 0.47634,-0.73674 0.82777,-1.43537 0.6076,-1.18239 4.39928,-5.26305 4.94125,-5.26305 0.12703,0 0.41707,-0.22335 0.64042,-0.5081 0.60336,-0.67111 3.69641,-2.16788 5.57848,-2.64634 0.89235,-0.22441 1.88102,-0.54303 2.23246,-0.70392 0.35143,-0.15667 1.21096,-0.31757 1.91066,-0.41283 1.88102,-0.19054 8.48417,0.0953 8.89805,0.38425 z m 347.40219,22.2208 v 16.10034 h -61.85347 v -21.55075 l 3.44448,-0.54515 c 7.6204,-1.17815 12.37111,-1.97628 12.65692,-2.16682 0.19053,-0.12808 1.75293,-0.38107 3.50587,-0.60337 1.75294,-0.22335 3.34921,-0.51339 3.50693,-0.64147 0.19371,-0.12385 1.69048,-0.41283 3.34921,-0.63618 1.65767,-0.19054 3.82449,-0.57479 4.78459,-0.82778 0.9548,-0.22229 2.9639,-0.57478 4.46067,-0.76426 1.50101,-0.19477 2.99778,-0.47952 3.34921,-0.60866 0.35143,-0.15666 1.94347,-0.44564 3.50693,-0.66899 1.59522,-0.19054 3.37779,-0.47634 3.98539,-0.67006 0.60337,-0.15772 2.90251,-0.60336 5.10215,-0.95585 2.2007,-0.35144 5.07039,-0.82566 6.37662,-1.05007 1.30624,-0.25617 2.7088,-0.44671 3.12269,-0.47952 l 0.70181,-0.0328 z M 259.8336,348.56806 v 19.09917 h 31.88312 v 28.37831 h -31.91276 l 0.12491,29.55646 c 0.0984,31.85136 0.0317,30.28791 1.75717,34.20767 1.30623,3.03165 5.00264,6.12363 8.19095,6.88895 0.54197,0.12809 1.14957,0.38108 1.40574,0.57479 0.60337,0.47634 13.51751,0.47634 14.0923,-0.0328 0.25193,-0.19053 1.4015,-0.4467 2.61247,-0.57478 l 2.13824,-0.22335 v 27.96442 l -0.86377,0.38107 c -0.7939,0.35038 -4.46173,0.92516 -9.49825,1.52959 -7.1737,0.83095 -20.24874,0.92621 -21.01406,0.12702 -0.19054,-0.15666 -0.69864,-0.28475 -1.17815,-0.28475 -1.24484,0 -6.40944,-0.95903 -6.79369,-1.24484 -0.19054,-0.12702 -1.05007,-0.4467 -1.94348,-0.63618 -0.85953,-0.22335 -1.72012,-0.51339 -1.91383,-0.63724 -0.15772,-0.16089 -0.88917,-0.4467 -1.59204,-0.67005 -0.70287,-0.22229 -1.34011,-0.51233 -1.43537,-0.6076 -0.0953,-0.0953 -0.67006,-0.4467 -1.27766,-0.79814 -2.64634,-1.4015 -3.44024,-1.9096 -4.84598,-3.09304 -0.82672,-0.66899 -1.59204,-1.23955 -1.75294,-1.23955 -0.31861,-0.0339 -2.7416,-2.68021 -4.65226,-5.10214 -1.46714,-1.88208 -3.63819,-5.48322 -4.3707,-7.33566 -0.25617,-0.60337 -0.54091,-1.17921 -0.63618,-1.27448 -0.12808,-0.0953 -0.4467,-1.08288 -0.76532,-2.23245 -0.28898,-1.14534 -0.67006,-2.35736 -0.83095,-2.7088 -0.15667,-0.35143 -0.54198,-1.78575 -0.79391,-3.18725 a 152.73201,152.73201 0 0 0 -0.86376,-3.98645 c -0.22335,-0.9548 -0.38108,-12.18164 -0.47634,-33.41377 l -0.12703,-31.94663 h -18.46299 v -28.37831 h 18.49581 v -32.14034 l 2.16576,-0.2223 c 1.17921,-0.1249 2.29491,-0.34825 2.45581,-0.47634 0.19053,-0.12808 1.75399,-0.41283 3.50693,-0.63724 1.75293,-0.22229 3.34921,-0.54514 3.50693,-0.66899 0.19054,-0.12808 2.19964,-0.48058 4.46491,-0.76532 2.2949,-0.32286 4.30507,-0.67006 4.46173,-0.79814 0.19054,-0.12808 1.24484,-0.35143 2.39017,-0.4467 a 52.62938,52.62938 0 0 0 4.46597,-0.73145 c 3.41166,-0.70287 9.37334,-1.63015 9.65915,-1.46819 0.12808,0.0625 0.22229,8.73716 0.22229,19.25584 z m 105.69593,16.06858 c 4.46174,0.25617 9.50249,0.83095 9.8825,1.11676 0.19054,0.12702 0.95586,0.35143 1.754,0.4467 1.81856,0.28898 6.25171,1.59522 8.92664,2.6781 2.23351,0.89446 7.20757,3.37885 7.97184,4.02032 0.25722,0.19054 0.82777,0.57055 1.27447,0.76426 0.44565,0.22336 1.85244,1.33588 3.09199,2.42405 1.24484,1.1157 2.39441,2.07156 2.55107,2.13295 0.48058,0.22336 6.15328,7.11231 6.15328,7.49233 0,0.0953 0.29003,0.60865 0.64147,1.08394 0.66899,0.95903 3.50587,6.47507 3.50587,6.8265 0,0.12385 0.25617,0.82672 0.60337,1.55922 0.31862,0.73569 0.70287,1.85244 0.83201,2.45581 0.12702,0.6076 0.35143,1.24484 0.47528,1.43432 0.12702,0.16195 0.41706,1.17921 0.64041,2.23351 0.19054,1.05007 0.44671,2.13824 0.54198,2.39017 0.12808,0.25617 0.41282,1.62486 0.67005,3.03059 0.38107,2.10437 0.47528,10.0434 0.60336,45.17835 l 0.12809,42.65902 H 380.9937 l -0.0318,-3.76204 c -0.0339,-2.03874 -0.12914,-5.0037 -0.25722,-6.56716 l -0.19054,-2.86863 -0.92516,1.27342 c -1.46396,1.9477 -6.28136,6.53646 -8.19202,7.81094 -4.18016,2.74478 -5.29268,3.4106 -6.44225,3.79591 -0.70287,0.19054 -1.62485,0.57478 -2.07156,0.82566 -0.47951,0.22441 -1.65767,0.60866 -2.6167,0.79919 -0.95586,0.2223 -1.91066,0.51233 -2.07156,0.63618 -1.62485,1.21203 -21.7127,1.18239 -23.27616,-0.0286 -0.15666,-0.12808 -1.30623,-0.41283 -2.55107,-0.63724 -1.21097,-0.22229 -2.64634,-0.57478 -3.18725,-0.83095 -0.5081,-0.22229 -1.88208,-0.79813 -2.9946,-1.24484 a 44.903122,44.903122 0 0 1 -3.76204,-1.8482 52.784985,52.784985 0 0 0 -2.58495,-1.49677 c -1.33905,-0.73569 -1.78575,-1.14957 -5.41971,-4.78459 -3.73028,-3.72922 -4.2098,-4.23732 -4.2098,-4.58875 0,-0.12809 -0.41388,-0.83095 -0.88917,-1.56346 -0.51339,-0.73145 -1.24484,-2.07156 -1.63014,-2.93532 -0.38002,-0.88917 -0.89235,-1.94348 -1.1157,-2.39018 -0.25193,-0.4467 -0.60337,-1.59204 -0.82672,-2.55107 -0.22335,-0.95586 -0.5081,-1.91066 -0.63724,-2.07156 -0.35143,-0.4467 -0.95903,-4.97512 -0.95903,-6.95141 0,-0.92093 -0.15666,-1.8482 -0.3472,-2.03768 -0.38425,-0.38531 -0.29004,-1.65873 0.69863,-9.34582 0.19054,-1.49677 0.47952,-2.86864 0.6076,-3.02636 0.12809,-0.19053 0.41283,-1.02149 0.60337,-1.88102 0.41389,-1.65872 1.27871,-3.82555 2.17106,-5.45464 0.2858,-0.54091 0.66688,-1.27342 0.86059,-1.65766 0.19053,-0.41283 0.4467,-0.73145 0.60336,-0.73145 0.12809,0 0.22336,-0.19054 0.22336,-0.41389 0,-0.35143 3.50693,-4.91161 4.11453,-5.3255 0.12702,-0.0953 0.35143,-0.41283 0.4467,-0.73251 0.12702,-0.35143 0.5081,-0.66899 0.85953,-0.76426 0.35144,-0.0953 0.63724,-0.29004 0.63724,-0.41812 0,-0.31756 5.35831,-4.52736 7.1737,-5.57849 1.30624,-0.79708 4.24262,-2.29385 8.51381,-4.33682 0.6076,-0.31756 6.5661,-2.22928 9.18387,-2.96391 0.9548,-0.2858 2.83687,-0.67111 4.14311,-0.86059 1.30623,-0.22335 2.55107,-0.47951 2.71197,-0.60336 0.19054,-0.12914 2.10119,-0.41812 4.30507,-0.60866 2.19964,-0.19054 4.90843,-0.5081 6.05694,-0.67005 4.52842,-0.669 20.43505,-0.54092 22.12659,0.16195 0.57479,0.25193 0.60337,0.12703 0.38108,-2.58494 -0.12491,-1.5624 -0.34826,-2.90251 -0.47634,-2.99778 -0.1609,-0.0953 -0.35144,-0.69863 -0.47952,-1.33905 -0.22335,-1.17921 -1.43538,-3.75886 -2.58071,-5.51603 -0.73569,-1.11252 -3.82873,-4.30507 -4.18017,-4.30507 -0.12384,0 -0.66581,-0.31756 -1.21096,-0.73145 -1.40256,-1.02149 -3.6636,-2.03874 -5.03652,-2.29491 -0.67005,-0.12808 -1.21202,-0.35143 -1.21202,-0.47951 0,-1.40151 -20.59595,-1.62486 -26.78098,-0.25299 -0.79813,0.15772 -2.64634,0.50809 -4.14417,0.76532 -1.501,0.25193 -2.99777,0.60336 -3.34921,0.76532 -0.35143,0.15666 -1.49677,0.4467 -2.55107,0.63618 -1.05007,0.19054 -2.19964,0.47952 -2.55107,0.63724 -0.35144,0.1609 -1.62486,0.51233 -2.83688,0.79814 -1.21097,0.2858 -2.36054,0.60336 -2.55108,0.76426 -0.19053,0.12914 -1.05006,0.4467 -1.94347,0.67005 -0.85953,0.22335 -1.75294,0.54197 -1.91383,0.67006 -0.19054,0.12808 -1.05113,0.41283 -1.9149,0.63724 -0.88917,0.19053 -2.13401,0.63618 -2.77019,0.9548 -0.67005,0.35143 -1.27765,0.6076 -1.37292,0.6076 -0.0953,0 -0.1609,-6.66561 -0.1609,-14.79411 0,-11.51159 0.0985,-14.85762 0.41707,-15.11379 0.22335,-0.19053 1.11675,-0.50809 1.97629,-0.73145 0.8934,-0.19053 1.75399,-0.47951 1.91065,-0.6076 0.19477,-0.12808 1.24484,-0.50809 2.39441,-0.79813 1.14534,-0.31862 2.22822,-0.66688 2.39018,-0.79391 0.19054,-0.16195 1.17815,-0.41812 2.19964,-0.63723 1.0543,-0.2223 2.13824,-0.51234 2.39017,-0.67006 0.28898,-0.12702 1.59522,-0.47951 2.90251,-0.76426 a 62.400732,62.400732 0 0 0 3.03059,-0.67005 c 0.3472,-0.0995 2.13401,-0.38425 3.98222,-0.64148 1.85244,-0.25193 3.79591,-0.60336 4.30401,-0.76426 1.85243,-0.57161 18.5572,-1.62486 22.3203,-1.4015 1.05007,0.0614 3.34921,0.19053 5.10214,0.2858 z m -175.84092,66.48139 v 63.44551 H 152.3879 V 367.66723 h 37.30071 z m 281.85231,-23.91657 c 0,37.75165 0.16089,45.05449 0.92621,46.07492 0.15667,0.15772 0.35144,0.7939 0.47952,1.40256 0.4467,2.38912 2.51826,5.86747 4.87456,8.22483 1.24484,1.27659 2.64634,2.39229 3.09305,2.5172 0.47951,0.0995 0.83095,0.29004 0.83095,0.41812 0,0.12385 1.11675,0.57055 2.48544,1.0162 2.04298,0.64147 3.12586,0.76532 6.31417,0.76532 2.23351,0 4.17593,-0.15667 4.62263,-0.3472 0.41283,-0.22229 1.4015,-0.54197 2.19964,-0.76532 0.79814,-0.2223 2.23351,-0.89235 3.18831,-1.53382 1.78575,-1.14534 5.10215,-4.20451 5.10215,-4.7179 0,-0.15666 0.4467,-0.85953 0.95586,-1.52959 0.54091,-0.70286 0.95903,-1.4015 0.95903,-1.59204 0,-0.19477 0.28581,-0.86376 0.60337,-1.501 0.35143,-0.63724 0.73251,-1.72012 0.86059,-2.39018 0.0953,-0.70286 0.31756,-1.4015 0.47952,-1.5624 0.79813,-1.02148 0.92621,-7.4595 0.92621,-44.86078 v -39.15315 h 37.30072 V 494.5646 h -17.66274 c -13.80332,0 -17.76013,-0.0953 -17.94961,-0.41389 -0.12914,-0.19054 -0.2858,-3.22113 -0.35143,-6.69524 -0.0635,-3.44342 -0.22335,-6.2803 -0.34826,-6.2803 -0.12703,0 -0.51233,0.38107 -0.89235,0.85953 -1.78681,2.42405 -4.59405,5.16566 -8.99333,8.79962 -0.63723,0.50809 -1.94347,1.21096 -4.81316,2.61352 -1.30729,0.63618 -2.74161,1.37187 -3.18831,1.59522 -0.44671,0.22335 -1.65767,0.57478 -2.71303,0.79813 -1.05007,0.22335 -1.97629,0.5081 -2.07156,0.63724 -0.31756,0.47634 -5.96168,0.9548 -11.54016,0.9548 -5.48322,0 -9.94813,-0.38107 -11.25542,-0.92622 -0.35144,-0.15666 -1.5624,-0.54091 -2.71197,-0.82671 -1.14534,-0.28581 -2.19964,-0.67006 -2.39018,-0.79814 -0.15666,-0.12808 -0.92199,-0.4467 -1.65767,-0.67005 -0.76532,-0.19054 -1.36869,-0.47529 -1.36869,-0.60337 0,-0.12808 -0.57478,-0.41283 -1.27765,-0.63724 -0.69863,-0.22229 -1.27448,-0.51233 -1.27448,-0.64041 0,-0.12385 -0.35143,-0.38108 -0.76426,-0.57161 -2.74161,-1.24378 -8.96051,-7.07844 -11.57404,-10.84048 -1.59627,-2.2949 -4.05208,-6.88895 -4.56018,-8.57626 -0.19053,-0.67005 -0.57478,-1.65767 -0.79813,-2.17 -0.22335,-0.54197 -0.60337,-1.68731 -0.79814,-2.55107 -0.19054,-0.88917 -0.47634,-1.81645 -0.63724,-2.13401 -0.15666,-0.29004 -0.4467,-1.78681 -0.63618,-3.34921 -0.19054,-1.53065 -0.54197,-3.09305 -0.73251,-3.44448 -0.28898,-0.47634 -0.41706,-11.85984 -0.47951,-45.8484 l -0.0953,-45.17834 h 37.33458 z m 0,0"
     style="fill:#ff6200;fill-opacity:1;fill-rule:nonzero;stroke:none;stroke-width:1.05853653"
     id="path2"
     inkscape:connector-curvature="0"
     inkscape:export-filename="C:\Users\suitedoalex\sites\itau-logo-3.png"
     inkscape:export-xdpi="75.691772"
     inkscape:export-ydpi="75.691772" />
  <path
     d="m 361.38219,438.16365 c -1.55817,0.15772 -3.15444,0.41283 -3.50587,0.57161 -0.35144,0.19371 -1.49678,0.47846 -2.55108,0.70181 -1.01725,0.19054 -2.39017,0.57479 -3.02741,0.86059 -4.78459,2.07156 -7.11125,3.44448 -8.70329,5.10215 -1.53064,1.59627 -3.06446,4.56123 -3.3164,6.40944 -0.0667,0.63618 -0.29003,1.46713 -0.47951,1.81539 -0.35144,0.73568 -0.22335,2.99777 0.35143,5.96168 0.63618,3.22112 3.18831,7.14512 5.44935,8.32433 4.01926,2.07155 4.78458,2.38911 7.0181,2.74161 4.01397,0.60336 11.66824,0.25616 13.32591,-0.63724 0.28581,-0.1609 1.46819,-0.70287 2.61353,-1.21203 1.14957,-0.54091 2.64634,-1.40573 3.34921,-1.9477 0.70287,-0.54092 1.49677,-1.17815 1.78575,-1.40151 1.81539,-1.36868 5.16566,-6.91753 5.6113,-9.21244 0.0953,-0.57479 0.35144,-1.24484 0.54197,-1.501 0.2223,-0.28581 0.38108,-3.22113 0.44671,-8.481 l 0.12702,-8.03429 -1.7233,-0.18948 c -2.32878,-0.28898 -13.80331,-0.19054 -17.31342,0.12808 z m 0,0"
     style="fill:#ff6200;fill-opacity:1;fill-rule:nonzero;stroke:none;stroke-width:1.05853653"
     id="path4"
     inkscape:connector-curvature="0"
     inkscape:export-filename="C:\Users\suitedoalex\sites\itau-logo-3.png"
     inkscape:export-xdpi="75.691772"
     inkscape:export-ydpi="75.691772" />
</svg>
